<?xml version="1.0" encoding="UTF-8"?>
<svg width="140px" height="20px" viewBox="0 0 140 20" version="1.1" xmlns="http://www.w3.org/2000/svg" xmlns:xlink="http://www.w3.org/1999/xlink">
    <!-- Generator: Sketch 52.2 (67145) - http://www.bohemiancoding.com/sketch -->
    <title>Yash Thakur.</title>
    <desc>Created with Sketch.</desc>
    <g id="Page-1" stroke="none" stroke-width="1" fill="none" fill-rule="evenodd">
        <g id="v3" transform="translate(-154.000000, -36.000000)" fill="#253455">
            <path d="M167.234,37.086 L171.004,37.086 L164.088,46.862 L164.088,55 L160.89,55 L160.89,46.836 L154.026,37.086 L157.77,37.086 L162.476,44.054 L167.234,37.086 Z M178.005429,42.858 L181.021429,42.858 L181.021429,55 L178.005429,55 L178.005429,53.362 C177.173429,54.662 175.457429,55.26 173.975429,55.26 C170.777429,55.26 167.995429,52.79 167.995429,48.916 C167.995429,45.016 170.751429,42.598 173.949429,42.598 C175.483429,42.598 177.173429,43.196 178.005429,44.47 L178.005429,42.858 Z M174.443429,52.426 C176.289429,52.426 177.953429,51.022 177.953429,48.89 C177.953429,46.758 176.185429,45.406 174.443429,45.406 C172.571429,45.406 171.037429,46.862 171.037429,48.89 C171.037429,50.918 172.571429,52.426 174.443429,52.426 Z M187.736857,55.26 C185.318857,55.26 182.900857,53.804 182.848857,51.204 L185.682857,51.204 C185.682857,52.036 186.410857,52.816 187.684857,52.816 C188.880857,52.816 189.660857,52.27 189.660857,51.49 C189.660857,50.814 189.140857,50.502 188.230857,50.294 L186.618857,49.878 C183.888857,49.15 183.186857,47.694 183.186857,46.16 C183.186857,44.262 185.058857,42.598 187.710857,42.598 C189.868857,42.598 192.312857,43.664 192.286857,46.394 L189.400857,46.394 C189.400857,45.536 188.646857,45.016 187.788857,45.016 C186.852857,45.016 186.202857,45.536 186.202857,46.29 C186.202857,46.914 186.800857,47.278 187.502857,47.434 L189.452857,47.954 C192.182857,48.656 192.676857,50.372 192.676857,51.49 C192.676857,53.96 190.206857,55.26 187.736857,55.26 Z M201.342286,42.598 C204.462286,42.598 206.204286,44.652 206.204286,48.188 L206.204286,55 L203.188286,55 L203.188286,48.474 C203.188286,46.55 202.018286,45.562 200.666286,45.562 C199.288286,45.562 197.572286,46.316 197.572286,48.656 L197.572286,55 L194.556286,55 L194.556286,36.358 L197.572286,36.358 L197.572286,44.704 C198.170286,43.248 200.120286,42.598 201.342286,42.598 Z M225.407143,37.086 L225.407143,39.92 L220.285143,39.92 L220.285143,55 L217.113143,55 L217.113143,39.92 L211.991143,39.92 L211.991143,37.086 L225.407143,37.086 Z M233.526572,42.598 C236.646572,42.598 238.388572,44.652 238.388572,48.188 L238.388572,55 L235.372572,55 L235.372572,48.474 C235.372572,46.55 234.202572,45.562 232.850572,45.562 C231.472572,45.562 229.756572,46.316 229.756572,48.656 L229.756572,55 L226.740572,55 L226.740572,36.358 L229.756572,36.358 L229.756572,44.704 C230.354572,43.248 232.304572,42.598 233.526572,42.598 Z M250.174,42.858 L253.19,42.858 L253.19,55 L250.174,55 L250.174,53.362 C249.342,54.662 247.626,55.26 246.144,55.26 C242.946,55.26 240.164,52.79 240.164,48.916 C240.164,45.016 242.92,42.598 246.118,42.598 C247.652,42.598 249.342,43.196 250.174,44.47 L250.174,42.858 Z M246.612,52.426 C248.458,52.426 250.122,51.022 250.122,48.89 C250.122,46.758 248.354,45.406 246.612,45.406 C244.74,45.406 243.206,46.862 243.206,48.89 C243.206,50.918 244.74,52.426 246.612,52.426 Z M267.419429,55 L263.597429,55 L258.865429,49.488 L258.865429,55 L255.849429,55 L255.849429,36.358 L258.865429,36.358 L258.865429,46.732 L262.349429,42.858 L266.275429,42.858 L261.335429,48.162 L267.419429,55 Z M276.526857,42.858 L279.542857,42.858 L279.542857,55 L276.526857,55 L276.526857,53.102 C275.902857,54.61 273.978857,55.286 272.756857,55.286 C269.636857,55.286 267.894857,53.206 267.894857,49.67 L267.894857,42.858 L270.910857,42.858 L270.910857,49.384 C270.910857,51.334 272.080857,52.322 273.432857,52.322 C274.810857,52.322 276.526857,51.568 276.526857,49.202 L276.526857,42.858 Z M288.702286,42.598 C289.430286,42.598 290.210286,42.754 290.678286,43.014 L290.080286,45.874 C289.378286,45.51 288.754286,45.432 288.312286,45.432 C286.336286,45.432 285.244286,47.356 285.244286,50.762 L285.244286,55 L282.202286,55 L282.202286,42.858 L285.218286,42.858 L285.218286,45.458 C285.868286,43.43 287.194286,42.598 288.702286,42.598 Z M291.439715,55.26 C290.373715,55.26 289.463715,54.454 289.463715,53.336 C289.463715,52.218 290.373715,51.412 291.439715,51.412 C292.531715,51.412 293.441715,52.218 293.441715,53.336 C293.441715,54.454 292.531715,55.26 291.439715,55.26 Z" id="Yash-Thakur."></path>
        </g>
    </g>
</svg>